<?xml version="1.0" encoding="UTF-8" standalone="no"?>
<!-- Created with Inkscape (http://www.inkscape.org/) -->

<svg
   xmlns:dc="http://purl.org/dc/elements/1.1/"
   xmlns:cc="http://creativecommons.org/ns#"
   xmlns:rdf="http://www.w3.org/1999/02/22-rdf-syntax-ns#"
   xmlns:svg="http://www.w3.org/2000/svg"
   xmlns="http://www.w3.org/2000/svg"
   version="1.1"
   width="228.41797"
   height="42.736328"
   viewBox="0 0 228.41797 42.736328"
   id="svg2"
   xml:space="preserve"
   style="overflow:visible"><metadata
     id="metadata17"><rdf:RDF><cc:Work
         rdf:about=""><dc:format>image/svg+xml</dc:format><dc:type
           rdf:resource="http://purl.org/dc/dcmitype/StillImage" /><dc:title></dc:title></cc:Work></rdf:RDF></metadata><defs
     id="defs15" /><g
     transform="translate(-18.790039,-28.828125)"
     id="g4"
     style="fill:none"><rect
       width="266"
       height="100"
       x="0"
       y="0"
       id="rect6"
       style="fill:none" /></g><g
     transform="translate(-18.790039,-28.828125)"
     id="g8"><path
       d="m 140.02051,49.59668 c -1.78418,0 -3.07031,0.584961 -4.37403,1.181152 v 13.48584 c 1.24903,0.11914 1.96485,0.11914 3.15039,0.11914 4.28223,0 4.86915,-1.960937 4.86915,-4.699218 v -6.441407 c 0,-2.021484 -0.6709,-3.645507 -3.64551,-3.645507 z m -28.43799,-0.73584 c -2.9707,0 -3.64941,1.631347 -3.64941,3.650879 v 1.134765 h 7.29443 v -1.134765 c 0,-2.019532 -0.67774,-3.650879 -3.64502,-3.650879 z M 56.492676,62.898437 c 0,1.597657 0.753906,2.427735 2.417969,2.427735 1.785156,0 2.841796,-0.582031 4.144531,-1.179688 v -3.199218 h -3.90332 c -1.847169,0 -2.65918,0.34375 -2.65918,1.951171 z M 167.68359,49.59668 c -2.97558,0 -4.00683,1.624023 -4.00683,3.645507 v 7.378907 c 0,2.027343 1.03125,3.65625 4.00683,3.65625 2.96778,0 4.00684,-1.628907 4.00684,-3.65625 v -7.378907 c 0,-2.021484 -1.03906,-3.645507 -4.00684,-3.645507 z M 41.90918,71.171875 H 33.161621 V 49.997559 h -4.371582 v -7.296387 h 4.371582 v -4.38086 c 0,-5.952636 2.467285,-9.492187 9.479004,-9.492187 h 5.837891 v 7.297852 H 44.82959 c -2.729981,0 -2.909668,1.019531 -2.909668,2.922851 l -0.01074,3.652344 h 6.610351 l -0.773437,7.296387 H 41.90918 v 21.174316 z m 29.896972,0.05469 h -7.290527 l -0.315918,-1.84375 c -3.329102,1.84375 -6.300293,2.142579 -8.260254,2.142579 -5.34668,0 -8.193359,-3.572266 -8.193359,-8.511719 0,-5.828125 3.320801,-7.908203 9.262207,-7.908203 h 6.046875 v -1.259766 c 0,-2.974121 -0.340821,-3.848144 -4.915528,-3.848144 h -7.47998 l 0.731445,-7.296387 h 8.17627 c 10.038086,0 12.238769,3.170898 12.238769,11.203125 v 17.322262 z m 24.792969,-20.69385 c -4.537109,-0.777344 -5.839844,-0.948242 -8.022949,-0.948242 -3.921387,0 -5.106445,0.865234 -5.106445,4.194824 v 6.298828 c 0,3.330078 1.185058,4.199219 5.106445,4.199219 2.183105,0 3.48584,-0.173828 8.022949,-0.955078 v 7.117187 c -3.974121,0.890625 -6.562988,1.125 -8.751465,1.125 -9.392089,0 -13.125488,-4.939453 -13.125488,-12.074219 v -5.111328 c 0,-7.141113 3.733398,-12.088867 13.125488,-12.088867 2.188477,0 4.777344,0.235352 8.751465,1.129883 v 7.112793 z m 27.375979,8.957519 h -16.04199 v 0.587891 c 0,3.330078 1.18603,4.199219 5.10644,4.199219 3.52441,0 5.67529,-0.173828 10.2041,-0.955078 v 7.117187 c -4.36767,0.890625 -6.64355,1.125 -10.9292,1.125 -9.39257,0 -13.127926,-4.939453 -13.127926,-12.074219 v -5.84375 c 0,-6.242675 2.771486,-11.356445 12.395996,-11.356445 9.62451,0 12.39258,5.054199 12.39258,11.356445 v 5.84375 z M 152.41211,59.625 c 0,6.896484 -1.9707,11.925781 -13.91113,11.925781 -4.31153,0 -6.84082,-0.378906 -11.59961,-1.111328 v -39.42041 l 8.74511,-1.459473 v 13.789063 c 1.88965,-0.702149 4.33594,-1.058594 6.5625,-1.058594 8.7461,0 10.20313,3.920898 10.20313,10.22168 V 59.625 z m 28.0332,0.150391 c 0,5.949218 -2.45605,11.71875 -12.73242,11.71875 -10.28125,0 -12.7832,-5.769532 -12.7832,-11.71875 V 54.03125 c 0,-5.952148 2.50195,-11.722656 12.7832,-11.722656 10.27637,0 12.73242,5.770508 12.73242,11.722656 v 5.744141 z m 28.01367,0 c 0,5.949218 -2.45898,11.71875 -12.73339,11.71875 -10.28125,0 -12.78321,-5.769532 -12.78321,-11.71875 V 54.03125 c 0,-5.952148 2.50196,-11.722656 12.78321,-11.722656 10.27441,0 12.73339,5.770508 12.73339,11.722656 v 5.744141 z m 28.74903,11.396484 h -9.47949 l -8.01661,-13.382813 v 13.382813 h -8.74804 V 31.019043 l 8.74804,-1.459473 v 25.848633 l 8.01661,-12.707031 h 9.47949 l -8.75196,13.867187 8.75196,14.603516 z M 195.69629,49.59668 c -2.9707,0 -4.00195,1.624023 -4.00195,3.645507 v 7.378907 c 0,2.027343 1.03125,3.65625 4.00195,3.65625 2.9668,0 4.0166,-1.628907 4.0166,-3.65625 v -7.378907 c 0,-2.021484 -1.0498,-3.645507 -4.0166,-3.645507 z"
       id="path10"
       style="fill:#1e6bb8;fill-opacity:1" /></g></svg>